<svg xmlns="http://www.w3.org/2000/svg" width="1920" height="600" viewBox="0 0 1920 600">
  <defs>
    <linearGradient id="bg" x1="0%" y1="0%" x2="100%" y2="100%">
      <stop offset="0%" style="stop-color:#0f0c29"/>
      <stop offset="50%" style="stop-color:#302b63"/>
      <stop offset="100%" style="stop-color:#24243e"/>
    </linearGradient>
    <linearGradient id="accent" x1="0%" y1="0%" x2="100%" y2="0%">
      <stop offset="0%" style="stop-color:#667eea"/>
      <stop offset="100%" style="stop-color:#764ba2"/>
    </linearGradient>
  </defs>
  <rect width="1920" height="600" fill="url(#bg)"/>
  <circle cx="200" cy="100" r="3" fill="#667eea" opacity="0.6"/>
  <circle cx="500" cy="200" r="2" fill="#764ba2" opacity="0.5"/>
  <circle cx="800" cy="80" r="4" fill="#667eea" opacity="0.4"/>
  <circle cx="1100" cy="300" r="2" fill="#f093fb" opacity="0.5"/>
  <circle cx="1400" cy="150" r="3" fill="#764ba2" opacity="0.6"/>
  <circle cx="1700" cy="250" r="2" fill="#667eea" opacity="0.4"/>
  <circle cx="300" cy="400" r="3" fill="#f093fb" opacity="0.3"/>
  <circle cx="900" cy="450" r="2" fill="#667eea" opacity="0.5"/>
  <circle cx="1500" cy="500" r="4" fill="#764ba2" opacity="0.4"/>
  <circle cx="100" cy="300" r="2" fill="#f093fb" opacity="0.3"/>
  <circle cx="600" cy="500" r="3" fill="#667eea" opacity="0.4"/>
  <circle cx="1200" cy="100" r="2" fill="#764ba2" opacity="0.5"/>
  <circle cx="1800" cy="400" r="3" fill="#f093fb" opacity="0.4"/>
  <circle cx="400" cy="350" r="2" fill="#667eea" opacity="0.3"/>
  <circle cx="1000" cy="520" r="3" fill="#764ba2" opacity="0.5"/>
  <circle cx="1600" cy="80" r="2" fill="#f093fb" opacity="0.4"/>
  <line x1="200" y1="100" x2="500" y2="200" stroke="#667eea" stroke-width="0.5" opacity="0.2"/>
  <line x1="500" y1="200" x2="800" y2="80" stroke="#764ba2" stroke-width="0.5" opacity="0.15"/>
  <line x1="800" y1="80" x2="1100" y2="300" stroke="#667eea" stroke-width="0.5" opacity="0.2"/>
  <line x1="1100" y1="300" x2="1400" y2="150" stroke="#764ba2" stroke-width="0.5" opacity="0.15"/>
  <line x1="1400" y1="150" x2="1700" y2="250" stroke="#667eea" stroke-width="0.5" opacity="0.2"/>
  <line x1="300" y1="400" x2="600" y2="500" stroke="#764ba2" stroke-width="0.5" opacity="0.15"/>
  <line x1="900" y1="450" x2="1200" y2="100" stroke="#667eea" stroke-width="0.5" opacity="0.2"/>
  <line x1="1500" y1="500" x2="1800" y2="400" stroke="#764ba2" stroke-width="0.5" opacity="0.15"/>
  <text x="960" y="280" text-anchor="middle" font-family="Arial,sans-serif" font-size="72" font-weight="bold" fill="url(#accent)">Dominator's Blog</text>
  <text x="960" y="350" text-anchor="middle" font-family="Arial,sans-serif" font-size="24" fill="#a0a0c0" letter-spacing="8">CODE · CREATE · EVOLVE</text>
</svg>